<?xml version="1.0" standalone="no"?>
<!DOCTYPE svg PUBLIC "-//W3C//DTD SVG 20010904//EN"
 "http://www.w3.org/TR/2001/REC-SVG-20010904/DTD/svg10.dtd">
<svg version="1.0" xmlns="http://www.w3.org/2000/svg"
 width="808.000000pt" height="808.000000pt" viewBox="0 0 808.000000 808.000000"
 preserveAspectRatio="xMidYMid meet">
<metadata>
Created by potrace 1.14, written by Peter Selinger 2001-2017
</metadata>
<g transform="translate(0.000000,808.000000) scale(0.100000,-0.100000)"
fill="#000000" stroke="none">
<path d="M3708 7335 c-3 -3 -41 -10 -84 -15 -134 -16 -348 -56 -439 -81 -22
-6 -65 -16 -95 -22 -30 -7 -59 -15 -65 -18 -5 -4 -26 -10 -45 -14 -19 -4 -41
-11 -50 -15 -8 -5 -64 -27 -124 -50 -295 -114 -563 -258 -806 -433 -179 -129
-522 -450 -613 -575 -12 -16 -61 -80 -108 -143 -78 -104 -224 -330 -260 -404
-9 -16 -20 -39 -27 -50 -10 -18 -47 -99 -99 -215 -11 -25 -35 -85 -53 -135
-18 -49 -36 -99 -40 -110 -22 -54 -60 -174 -66 -210 -4 -22 -9 -44 -13 -50 -3
-5 -12 -37 -19 -70 -7 -33 -17 -80 -23 -105 -12 -55 -34 -200 -51 -340 -15
-124 -14 -512 2 -650 10 -93 30 -232 49 -340 17 -93 98 -393 121 -445 5 -11
18 -47 28 -80 20 -58 36 -97 82 -200 29 -65 120 -247 130 -260 4 -5 22 -37 40
-70 77 -139 228 -357 329 -475 101 -117 115 -132 197 -214 108 -107 127 -123
279 -246 151 -122 183 -145 325 -232 89 -55 139 -84 240 -139 8 -5 56 -27 105
-50 50 -22 103 -47 119 -55 16 -8 33 -14 37 -14 5 0 32 -11 61 -24 104 -47
384 -133 533 -162 234 -47 372 -62 625 -70 291 -9 544 13 800 72 112 25 212
52 245 64 11 4 65 21 120 39 55 18 109 36 120 41 11 5 43 18 70 29 136 52 310
140 460 231 111 67 272 176 310 208 11 9 54 44 95 77 41 33 77 62 80 65 3 3
41 37 84 75 90 79 313 325 391 430 270 366 456 740 564 1135 17 63 36 131 41
150 17 59 38 179 54 310 9 69 21 159 26 200 23 170 3 614 -36 828 -32 174 -56
284 -73 332 -5 14 -17 52 -26 85 -17 59 -58 181 -75 220 -5 11 -23 56 -40 100
-64 160 -187 392 -302 566 -64 97 -122 182 -130 190 -7 8 -40 48 -73 89 -33
41 -82 98 -109 127 -27 30 -55 62 -62 72 -20 27 -239 227 -331 301 -198 158
-451 321 -626 404 -88 41 -146 66 -151 66 -3 0 -29 11 -58 24 -29 13 -89 36
-133 51 -44 14 -89 30 -100 35 -40 17 -222 70 -242 70 -11 0 -23 3 -27 8 -4 4
-40 13 -79 20 -40 7 -94 17 -122 22 -180 34 -294 43 -580 47 -165 2 -303 1
-307 -2z m617 -285 c97 -10 168 -20 285 -44 158 -33 195 -41 205 -47 6 -4 29
-10 52 -14 24 -4 45 -11 49 -16 3 -5 14 -9 25 -9 10 0 27 -4 37 -9 9 -4 42
-16 72 -26 30 -9 71 -24 90 -32 19 -8 44 -19 55 -23 190 -81 363 -171 520
-274 55 -36 105 -69 110 -73 6 -5 47 -37 93 -72 297 -225 611 -586 797 -916
50 -89 135 -259 135 -272 0 -6 4 -13 8 -15 4 -1 23 -43 42 -93 18 -49 36 -94
40 -100 4 -5 15 -39 25 -75 10 -36 22 -69 27 -74 4 -6 8 -18 8 -28 0 -9 6 -37
14 -60 8 -24 21 -79 31 -123 9 -44 20 -87 23 -95 7 -18 26 -147 44 -290 16
-129 16 -541 0 -665 -21 -167 -47 -308 -83 -450 -5 -22 -11 -48 -13 -57 -1
-10 -5 -21 -9 -24 -4 -4 -7 -18 -7 -30 0 -13 -4 -25 -9 -28 -5 -3 -12 -22 -16
-42 -3 -20 -10 -44 -15 -53 -5 -9 -21 -50 -36 -91 -73 -203 -191 -432 -321
-623 -210 -308 -430 -542 -708 -752 -104 -78 -280 -195 -294 -195 -5 0 -11 -3
-13 -7 -1 -5 -19 -17 -38 -27 -77 -42 -285 -146 -293 -146 -4 0 -30 -11 -57
-24 -28 -14 -64 -28 -81 -31 -17 -4 -42 -13 -57 -21 -15 -8 -35 -14 -44 -14
-9 0 -20 -4 -23 -10 -3 -5 -16 -10 -29 -10 -12 0 -26 -4 -32 -9 -9 -8 -37 -16
-164 -45 -30 -7 -62 -15 -70 -18 -8 -4 -31 -9 -50 -13 -19 -3 -73 -12 -120
-20 -166 -29 -278 -37 -520 -37 -274 1 -381 10 -585 48 -16 3 -43 8 -60 11
-16 2 -37 7 -45 11 -8 3 -40 11 -70 18 -81 18 -142 35 -165 44 -11 5 -47 18
-80 29 -89 28 -231 85 -302 120 -34 16 -76 37 -95 45 -18 8 -58 29 -88 47 -30
17 -79 44 -108 61 -56 31 -179 113 -268 179 -224 165 -517 463 -664 674 -14
20 -29 42 -35 49 -5 6 -15 21 -22 31 -7 11 -39 64 -73 117 -69 111 -178 320
-205 393 -10 28 -21 55 -25 60 -4 6 -15 33 -25 60 -10 28 -21 55 -25 60 -4 6
-11 26 -14 45 -4 19 -11 44 -16 55 -5 11 -14 38 -20 60 -6 22 -16 56 -21 75
-43 152 -75 325 -100 545 -16 137 -6 578 16 705 45 258 67 365 78 376 4 4 7
15 7 25 0 10 14 62 31 116 33 103 37 116 63 175 9 20 16 43 16 52 0 9 5 16 10
16 6 0 10 7 10 15 0 8 20 58 45 111 25 53 45 97 45 99 0 19 207 356 223 363 4
2 7 8 7 14 0 6 11 24 25 42 14 17 63 78 108 136 93 119 315 346 427 436 266
214 499 354 805 484 11 4 36 15 55 23 19 8 60 23 90 33 30 9 64 21 75 25 46
18 117 39 134 39 10 0 21 3 25 8 4 4 33 12 64 19 31 6 89 19 129 27 91 21 185
35 288 45 111 11 541 11 650 1z"/>
<path d="M3974 6796 c-40 -14 -62 -33 -80 -67 -21 -41 -20 -438 1 -479 24 -46
66 -70 122 -70 42 0 56 5 89 34 l39 34 3 225 3 226 -25 39 c-19 30 -37 44 -72
56 -26 9 -48 15 -48 15 -1 -1 -15 -6 -32 -13z"/>
<path d="M2579 6421 c-46 -25 -73 -85 -63 -139 6 -32 113 -231 190 -354 29
-45 70 -68 122 -68 32 0 48 8 83 39 41 36 43 41 43 92 0 59 2 53 -129 277 -42
72 -89 139 -103 148 -39 26 -101 28 -143 5z"/>
<path d="M5305 6408 c-26 -18 -134 -187 -143 -225 -2 -7 -8 -13 -13 -13 -5 0
-9 -4 -9 -10 0 -5 -13 -32 -29 -59 -55 -92 -50 -168 13 -216 42 -32 115 -34
156 -5 24 17 120 158 120 176 0 3 16 29 34 59 61 95 76 131 76 186 0 48 -3 55
-40 91 -36 33 -47 38 -88 37 -30 0 -58 -8 -77 -21z"/>
<path d="M1569 5413 c-71 -43 -77 -157 -13 -215 26 -22 329 -195 368 -209 69
-25 166 58 166 141 0 65 -42 100 -276 231 -105 59 -130 69 -171 69 -27 0 -60
-8 -74 -17z"/>
<path d="M6285 5398 c-33 -17 -95 -53 -138 -80 -43 -26 -90 -51 -103 -54 -13
-3 -24 -10 -24 -15 0 -5 -5 -9 -10 -9 -6 0 -51 -25 -101 -55 -50 -30 -92 -55
-94 -55 -2 0 -90 -50 -197 -112 -106 -61 -206 -119 -223 -128 -16 -10 -65 -38
-108 -64 -43 -25 -82 -46 -87 -46 -6 0 -10 -4 -10 -9 0 -5 -8 -11 -17 -14 -26
-9 -97 -49 -391 -224 -40 -24 -75 -43 -78 -43 -3 0 -18 -8 -32 -18 -15 -11
-58 -36 -97 -57 -38 -21 -81 -45 -95 -55 -14 -9 -50 -31 -80 -47 -30 -17 -107
-61 -170 -98 -63 -37 -138 -80 -167 -97 l-52 -29 -38 23 c-21 13 -48 29 -58
36 -11 6 -27 15 -35 19 -8 4 -43 24 -78 45 -34 21 -64 38 -67 38 -2 0 -39 21
-82 47 -145 86 -197 117 -263 153 -36 20 -110 63 -165 95 -55 31 -120 69 -145
83 -25 14 -73 43 -108 64 -34 21 -65 38 -67 38 -3 0 -34 17 -68 38 -125 77
-209 122 -242 128 -53 10 -119 -26 -139 -77 -9 -22 -16 -48 -16 -59 0 -30 29
-85 54 -100 53 -35 228 -140 232 -140 2 0 44 -25 95 -55 50 -30 93 -55 96 -55
2 0 29 -16 59 -35 30 -19 57 -35 59 -35 3 0 71 -38 150 -85 80 -47 150 -85
155 -85 6 0 10 -4 10 -9 0 -5 8 -11 18 -15 9 -3 24 -10 32 -15 28 -19 150 -91
154 -91 2 0 66 -37 142 -81 77 -45 155 -90 174 -101 19 -10 49 -27 65 -38 19
-11 49 -19 80 -19 42 -1 60 5 105 35 30 19 64 40 75 45 11 5 38 20 60 34 22
14 62 37 89 51 28 15 85 48 128 75 43 27 81 49 84 49 4 0 35 18 70 40 35 22
66 40 69 40 2 0 33 17 67 38 35 21 83 50 108 64 25 14 101 58 170 98 69 40
150 86 180 103 30 16 67 38 82 49 14 10 29 18 32 18 3 0 46 25 96 55 50 30 93
55 95 55 2 0 45 25 95 55 50 30 93 55 95 55 2 0 37 20 77 43 158 95 225 133
273 157 28 14 52 27 55 30 6 6 26 17 105 60 31 17 72 40 93 52 20 13 55 32 76
43 57 29 106 80 108 112 4 85 -17 134 -68 158 -47 22 -82 18 -149 -17z"/>
<path d="M1240 4063 c-41 -16 -70 -47 -81 -85 -15 -58 -4 -102 37 -143 l35
-35 229 0 230 0 40 40 c36 36 40 45 40 89 0 42 -5 54 -39 92 l-39 44 -218 2
c-121 1 -226 -1 -234 -4z"/>
<path d="M6297 4026 c-58 -58 -58 -134 0 -192 l34 -34 225 0 c213 0 228 1 255
21 77 54 78 159 3 218 -25 20 -39 21 -255 21 l-228 0 -34 -34z"/>
<path d="M6047 2871 c-81 -12 -114 -61 -108 -163 1 -31 43 -75 97 -103 22 -11
68 -38 104 -60 36 -22 88 -51 115 -65 28 -14 52 -28 53 -32 2 -5 28 -8 57 -8
49 0 58 4 95 38 37 36 40 43 40 90 0 45 -5 57 -35 91 -20 21 -50 46 -68 54
-17 9 -90 50 -161 91 -72 42 -132 75 -135 75 -3 -1 -28 -5 -54 -8z"/>
<path d="M1875 2853 c-16 -10 -50 -30 -75 -44 -69 -42 -152 -88 -180 -101 -74
-35 -113 -113 -91 -181 31 -92 131 -117 227 -58 28 17 56 31 63 31 6 0 11 5
11 10 0 6 4 10 9 10 21 0 198 113 224 142 22 26 27 42 27 84 0 46 -4 57 -35
88 -32 33 -39 36 -92 36 -36 0 -70 -7 -88 -17z"/>
<path d="M2750 1981 c-19 -16 -44 -46 -55 -67 -11 -22 -34 -61 -51 -89 -73
-118 -124 -224 -124 -257 0 -54 41 -101 109 -125 28 -9 40 -8 75 7 52 22 58
30 138 170 139 242 143 253 113 310 -42 81 -140 105 -205 51z"/>
<path d="M5115 1979 c-19 -17 -35 -37 -35 -45 0 -8 -5 -23 -11 -33 -17 -25 -7
-53 52 -156 29 -49 61 -106 72 -125 85 -152 104 -170 185 -170 111 0 165 107
106 210 -14 25 -40 70 -57 100 -75 135 -137 227 -162 238 -14 7 -46 12 -70 12
-35 0 -52 -6 -80 -31z"/>
<path d="M3931 1661 c-17 -16 -35 -41 -41 -55 -5 -15 -10 -114 -10 -223 0
-159 3 -201 16 -229 24 -51 63 -74 123 -74 46 0 55 4 91 40 l40 40 0 221 c0
187 -3 225 -16 249 -24 40 -65 60 -122 60 -41 0 -55 -5 -81 -29z"/>
</g>
</svg>
